<svg width="640" height="390" viewBox="0 0 640 390" fill="none" xmlns="http://www.w3.org/2000/svg">
<path fill-rule="evenodd" clip-rule="evenodd" d="M374.675 56.6738C406.935 43.8352 441.812 38.9511 476.357 42.4344C548.48 49.532 607.488 78.7824 641.477 146.497C649.81 163.215 656.869 180.538 662.594 198.319C676.282 240.42 682.145 283.954 684.019 331.565L675.643 320.081C667.696 309.319 659.799 298.517 651.902 287.715L651.901 287.713C634.695 264.179 617.487 240.64 599.751 217.496C549.648 152.118 483.411 107.592 409.811 73.0293C400.836 68.7268 391.832 64.5794 382.112 60.102C379.681 58.9825 377.206 57.8422 374.675 56.6738ZM394.341 -42.3475L394.341 -42.3475C386.445 -43.4787 378.548 -44.6101 370.73 -46L355.3 -46C353.85 -45.7753 352.429 -45.5243 351.019 -45.2753L351.018 -45.2753C348.142 -44.7673 345.312 -44.2677 342.383 -44.0162C320.771 -42.4274 299.739 -36.2905 280.664 -26.0075C226.528 3.86001 189.761 48.3196 170.165 106.864C167.739 114.084 165.918 121.493 164.017 129.23L164.016 129.234C163.085 133.023 162.134 136.891 161.084 140.854C162.434 140.47 163.753 139.984 165.029 139.399C166.701 138.244 168.348 137.047 169.995 135.849L169.996 135.848L170 135.846L170.004 135.842C171.025 135.1 172.047 134.357 173.075 133.624C224.787 96.5044 278.548 63.022 339.892 43.9332C392.331 27.6218 446.556 20.965 500.978 15.7189C511.624 14.7084 522.278 13.8542 533.796 12.9307L533.798 12.9305C540.119 12.4238 546.7 11.8961 553.682 11.3104C550.62 9.34408 547.456 7.54142 544.204 5.90997C534.696 2.1628 525.232 -1.72163 515.768 -5.6062L515.768 -5.6065C492.385 -15.2038 469.001 -24.8019 444.947 -32.3337C428.631 -37.435 411.489 -39.8908 394.341 -42.3475ZM53.5388 257.811C66.9195 300.896 93.1736 338.85 128.77 366.569C102.892 221.882 144.354 91.5008 210.966 -33.8546C209.217 -34.0588 207.451 -33.6791 205.94 -32.7745C164.81 -7.03944 127.677 24.5902 95.728 61.1043C45.6476 119.076 29.8431 184.189 53.5388 257.811ZM630.39 311.308C616.834 267.135 592.146 230.17 554.806 198.429C555.317 204.622 555.823 210.521 556.312 216.221L556.313 216.232L556.314 216.237L556.314 216.24L556.314 216.241C557.344 228.243 558.298 239.363 559.06 250.493C563.932 322.616 559.082 393.636 532.323 461.66C524.421 481.002 520.898 501.853 522.007 522.717C522.562 532.481 522.433 542.297 522.294 552.886L522.294 552.887L522.294 552.888C522.229 557.86 522.161 563.002 522.161 568.389C550.395 546.4 575.87 521.081 598.031 492.982C641.014 438.03 650.669 377.215 630.39 311.308ZM174.728 520.16C122.223 506.935 79.1081 483.217 50.9158 436.994C24.8175 394.232 11.9888 347.105 4.95726 298.127C3.24669 286.247 2.28472 274.267 1.32359 262.298L1.32359 262.298C0.93474 257.455 0.546007 252.614 0.107897 247.782C-0.0405401 246.136 -0.00721485 244.473 0.040942 242.071L0.040942 242.069C0.0714596 240.547 0.107898 238.729 0.107898 236.43C1.97649 239.046 3.44908 241.191 4.72368 243.047L4.72405 243.047C6.45647 245.571 7.82323 247.561 9.3217 249.479C18.9635 261.96 28.5239 274.51 38.0846 287.061L38.0903 287.068C62.2971 318.845 86.5057 350.624 112.04 381.293C122.678 394.071 135.636 404.911 148.606 415.761C155.146 421.232 161.689 426.705 167.939 432.431C170.849 435.098 174.398 439.044 174.552 442.549C174.857 460.943 174.811 479.361 174.764 498.458L174.764 498.47C174.746 505.594 174.728 512.813 174.728 520.16ZM174.155 578L174.155 552.563L132.693 555.473L132.076 557.963L174.155 578Z" fill="#0090E3"/>
</svg>
