<svg width="1170" height="390" viewBox="0 0 1170 390" fill="none" xmlns="http://www.w3.org/2000/svg">
<path fill-rule="evenodd" clip-rule="evenodd" d="M116 117H117V0H116V117Z" fill="url(#paint0_radial_1241_157)"/>
<path fill-rule="evenodd" clip-rule="evenodd" d="M233 117H234V0H233V117Z" fill="url(#paint1_radial_1241_157)"/>
<path fill-rule="evenodd" clip-rule="evenodd" d="M350 117H351V0H350V117Z" fill="url(#paint2_radial_1241_157)"/>
<path fill-rule="evenodd" clip-rule="evenodd" d="M467 117H468V0H467V117Z" fill="url(#paint3_radial_1241_157)"/>
<path fill-rule="evenodd" clip-rule="evenodd" d="M584 117H585V0H584V117Z" fill="url(#paint4_radial_1241_157)"/>
<path fill-rule="evenodd" clip-rule="evenodd" d="M701 117H702V0H701V117Z" fill="url(#paint5_radial_1241_157)"/>
<path fill-rule="evenodd" clip-rule="evenodd" d="M818 117H819V0H818V117Z" fill="url(#paint6_radial_1241_157)"/>
<path fill-rule="evenodd" clip-rule="evenodd" d="M935 117H936V0H935V117Z" fill="url(#paint7_radial_1241_157)"/>
<path fill-rule="evenodd" clip-rule="evenodd" d="M1052 117H1053V0H1052V117Z" fill="url(#paint8_radial_1241_157)"/>
<path fill-rule="evenodd" clip-rule="evenodd" d="M117 234V117H0V118H116V234H117Z" fill="url(#paint9_radial_1241_157)"/>
<path fill-rule="evenodd" clip-rule="evenodd" d="M117 351V234H0V235H116V351H117Z" fill="url(#paint10_radial_1241_157)"/>
<path fill-rule="evenodd" clip-rule="evenodd" d="M117 468V351H0V352H116V468H117Z" fill="url(#paint11_radial_1241_157)"/>
<path fill-rule="evenodd" clip-rule="evenodd" d="M234 234V117H117V118H233V234H234Z" fill="url(#paint12_radial_1241_157)"/>
<path fill-rule="evenodd" clip-rule="evenodd" d="M234 351V234H117V235H233V351H234Z" fill="url(#paint13_radial_1241_157)"/>
<path fill-rule="evenodd" clip-rule="evenodd" d="M234 468V351H117V352H233V468H234Z" fill="url(#paint14_radial_1241_157)"/>
<path fill-rule="evenodd" clip-rule="evenodd" d="M351 234V117H234V118H350V234H351Z" fill="url(#paint15_radial_1241_157)"/>
<path fill-rule="evenodd" clip-rule="evenodd" d="M351 351V234H234V235H350V351H351Z" fill="url(#paint16_radial_1241_157)"/>
<path fill-rule="evenodd" clip-rule="evenodd" d="M351 468V351H234V352H350V468H351Z" fill="url(#paint17_radial_1241_157)"/>
<path fill-rule="evenodd" clip-rule="evenodd" d="M468 234V117H351V118H467V234H468Z" fill="url(#paint18_radial_1241_157)"/>
<path fill-rule="evenodd" clip-rule="evenodd" d="M468 351V234H351V235H467V351H468Z" fill="url(#paint19_radial_1241_157)"/>
<path fill-rule="evenodd" clip-rule="evenodd" d="M468 468V351H351V352H467V468H468Z" fill="url(#paint20_radial_1241_157)"/>
<path fill-rule="evenodd" clip-rule="evenodd" d="M585 234V117H468V118H584V234H585Z" fill="url(#paint21_radial_1241_157)"/>
<path fill-rule="evenodd" clip-rule="evenodd" d="M585 351V234H468V235H584V351H585Z" fill="url(#paint22_radial_1241_157)"/>
<path fill-rule="evenodd" clip-rule="evenodd" d="M585 468V351H468V352H584V468H585Z" fill="url(#paint23_radial_1241_157)"/>
<path fill-rule="evenodd" clip-rule="evenodd" d="M702 234V117H585V118H701V234H702Z" fill="url(#paint24_radial_1241_157)"/>
<path fill-rule="evenodd" clip-rule="evenodd" d="M702 351V234H585V235H701V351H702Z" fill="url(#paint25_radial_1241_157)"/>
<path fill-rule="evenodd" clip-rule="evenodd" d="M702 468V351H585V352H701V468H702Z" fill="url(#paint26_radial_1241_157)"/>
<path fill-rule="evenodd" clip-rule="evenodd" d="M819 234V117H702V118H818V234H819Z" fill="url(#paint27_radial_1241_157)"/>
<path fill-rule="evenodd" clip-rule="evenodd" d="M819 351V234H702V235H818V351H819Z" fill="url(#paint28_radial_1241_157)"/>
<path fill-rule="evenodd" clip-rule="evenodd" d="M819 468V351H702V352H818V468H819Z" fill="url(#paint29_radial_1241_157)"/>
<path fill-rule="evenodd" clip-rule="evenodd" d="M936 234V117H819V118H935V234H936Z" fill="url(#paint30_radial_1241_157)"/>
<path fill-rule="evenodd" clip-rule="evenodd" d="M936 351V234H819V235H935V351H936Z" fill="url(#paint31_radial_1241_157)"/>
<path fill-rule="evenodd" clip-rule="evenodd" d="M936 468V351H819V352H935V468H936Z" fill="url(#paint32_radial_1241_157)"/>
<path fill-rule="evenodd" clip-rule="evenodd" d="M1053 234V117H936V118H1052V234H1053Z" fill="url(#paint33_radial_1241_157)"/>
<path fill-rule="evenodd" clip-rule="evenodd" d="M1053 351V234H936V235H1052V351H1053Z" fill="url(#paint34_radial_1241_157)"/>
<path fill-rule="evenodd" clip-rule="evenodd" d="M1053 468V351H936V352H1052V468H1053Z" fill="url(#paint35_radial_1241_157)"/>
<path fill-rule="evenodd" clip-rule="evenodd" d="M1170 118H1053V117H1170V118Z" fill="url(#paint36_radial_1241_157)"/>
<path fill-rule="evenodd" clip-rule="evenodd" d="M1170 235H1053V234H1170V235Z" fill="url(#paint37_radial_1241_157)"/>
<path fill-rule="evenodd" clip-rule="evenodd" d="M1170 352H1053V351H1170V352Z" fill="url(#paint38_radial_1241_157)"/>
<defs>
<radialGradient id="paint0_radial_1241_157" cx="0" cy="0" r="1" gradientUnits="userSpaceOnUse" gradientTransform="translate(850.5 234) rotate(180) scale(705 705)">
<stop stop-color="#CFEEFF"/>
<stop offset="1" stop-color="#CFEEFF" stop-opacity="0"/>
</radialGradient>
<radialGradient id="paint1_radial_1241_157" cx="0" cy="0" r="1" gradientUnits="userSpaceOnUse" gradientTransform="translate(850.5 234) rotate(180) scale(705 705)">
<stop stop-color="#CFEEFF"/>
<stop offset="1" stop-color="#CFEEFF" stop-opacity="0"/>
</radialGradient>
<radialGradient id="paint2_radial_1241_157" cx="0" cy="0" r="1" gradientUnits="userSpaceOnUse" gradientTransform="translate(850.5 234) rotate(180) scale(705 705)">
<stop stop-color="#CFEEFF"/>
<stop offset="1" stop-color="#CFEEFF" stop-opacity="0"/>
</radialGradient>
<radialGradient id="paint3_radial_1241_157" cx="0" cy="0" r="1" gradientUnits="userSpaceOnUse" gradientTransform="translate(850.5 234) rotate(180) scale(705 705)">
<stop stop-color="#CFEEFF"/>
<stop offset="1" stop-color="#CFEEFF" stop-opacity="0"/>
</radialGradient>
<radialGradient id="paint4_radial_1241_157" cx="0" cy="0" r="1" gradientUnits="userSpaceOnUse" gradientTransform="translate(850.5 234) rotate(180) scale(705 705)">
<stop stop-color="#CFEEFF"/>
<stop offset="1" stop-color="#CFEEFF" stop-opacity="0"/>
</radialGradient>
<radialGradient id="paint5_radial_1241_157" cx="0" cy="0" r="1" gradientUnits="userSpaceOnUse" gradientTransform="translate(850.5 234) rotate(180) scale(705 705)">
<stop stop-color="#CFEEFF"/>
<stop offset="1" stop-color="#CFEEFF" stop-opacity="0"/>
</radialGradient>
<radialGradient id="paint6_radial_1241_157" cx="0" cy="0" r="1" gradientUnits="userSpaceOnUse" gradientTransform="translate(850.5 234) rotate(180) scale(705 705)">
<stop stop-color="#CFEEFF"/>
<stop offset="1" stop-color="#CFEEFF" stop-opacity="0"/>
</radialGradient>
<radialGradient id="paint7_radial_1241_157" cx="0" cy="0" r="1" gradientUnits="userSpaceOnUse" gradientTransform="translate(850.5 234) rotate(180) scale(705 705)">
<stop stop-color="#CFEEFF"/>
<stop offset="1" stop-color="#CFEEFF" stop-opacity="0"/>
</radialGradient>
<radialGradient id="paint8_radial_1241_157" cx="0" cy="0" r="1" gradientUnits="userSpaceOnUse" gradientTransform="translate(850.5 234) rotate(180) scale(705 705)">
<stop stop-color="#CFEEFF"/>
<stop offset="1" stop-color="#CFEEFF" stop-opacity="0"/>
</radialGradient>
<radialGradient id="paint9_radial_1241_157" cx="0" cy="0" r="1" gradientUnits="userSpaceOnUse" gradientTransform="translate(850.5 234) rotate(180) scale(705 705)">
<stop stop-color="#CFEEFF"/>
<stop offset="1" stop-color="#CFEEFF" stop-opacity="0"/>
</radialGradient>
<radialGradient id="paint10_radial_1241_157" cx="0" cy="0" r="1" gradientUnits="userSpaceOnUse" gradientTransform="translate(850.5 234) rotate(180) scale(705 705)">
<stop stop-color="#CFEEFF"/>
<stop offset="1" stop-color="#CFEEFF" stop-opacity="0"/>
</radialGradient>
<radialGradient id="paint11_radial_1241_157" cx="0" cy="0" r="1" gradientUnits="userSpaceOnUse" gradientTransform="translate(850.5 234) rotate(180) scale(705 705)">
<stop stop-color="#CFEEFF"/>
<stop offset="1" stop-color="#CFEEFF" stop-opacity="0"/>
</radialGradient>
<radialGradient id="paint12_radial_1241_157" cx="0" cy="0" r="1" gradientUnits="userSpaceOnUse" gradientTransform="translate(850.5 234) rotate(180) scale(705 705)">
<stop stop-color="#CFEEFF"/>
<stop offset="1" stop-color="#CFEEFF" stop-opacity="0"/>
</radialGradient>
<radialGradient id="paint13_radial_1241_157" cx="0" cy="0" r="1" gradientUnits="userSpaceOnUse" gradientTransform="translate(850.5 234) rotate(180) scale(705 705)">
<stop stop-color="#CFEEFF"/>
<stop offset="1" stop-color="#CFEEFF" stop-opacity="0"/>
</radialGradient>
<radialGradient id="paint14_radial_1241_157" cx="0" cy="0" r="1" gradientUnits="userSpaceOnUse" gradientTransform="translate(850.5 234) rotate(180) scale(705 705)">
<stop stop-color="#CFEEFF"/>
<stop offset="1" stop-color="#CFEEFF" stop-opacity="0"/>
</radialGradient>
<radialGradient id="paint15_radial_1241_157" cx="0" cy="0" r="1" gradientUnits="userSpaceOnUse" gradientTransform="translate(850.5 234) rotate(180) scale(705 705)">
<stop stop-color="#CFEEFF"/>
<stop offset="1" stop-color="#CFEEFF" stop-opacity="0"/>
</radialGradient>
<radialGradient id="paint16_radial_1241_157" cx="0" cy="0" r="1" gradientUnits="userSpaceOnUse" gradientTransform="translate(850.5 234) rotate(180) scale(705 705)">
<stop stop-color="#CFEEFF"/>
<stop offset="1" stop-color="#CFEEFF" stop-opacity="0"/>
</radialGradient>
<radialGradient id="paint17_radial_1241_157" cx="0" cy="0" r="1" gradientUnits="userSpaceOnUse" gradientTransform="translate(850.5 234) rotate(180) scale(705 705)">
<stop stop-color="#CFEEFF"/>
<stop offset="1" stop-color="#CFEEFF" stop-opacity="0"/>
</radialGradient>
<radialGradient id="paint18_radial_1241_157" cx="0" cy="0" r="1" gradientUnits="userSpaceOnUse" gradientTransform="translate(850.5 234) rotate(180) scale(705 705)">
<stop stop-color="#CFEEFF"/>
<stop offset="1" stop-color="#CFEEFF" stop-opacity="0"/>
</radialGradient>
<radialGradient id="paint19_radial_1241_157" cx="0" cy="0" r="1" gradientUnits="userSpaceOnUse" gradientTransform="translate(850.5 234) rotate(180) scale(705 705)">
<stop stop-color="#CFEEFF"/>
<stop offset="1" stop-color="#CFEEFF" stop-opacity="0"/>
</radialGradient>
<radialGradient id="paint20_radial_1241_157" cx="0" cy="0" r="1" gradientUnits="userSpaceOnUse" gradientTransform="translate(850.5 234) rotate(180) scale(705 705)">
<stop stop-color="#CFEEFF"/>
<stop offset="1" stop-color="#CFEEFF" stop-opacity="0"/>
</radialGradient>
<radialGradient id="paint21_radial_1241_157" cx="0" cy="0" r="1" gradientUnits="userSpaceOnUse" gradientTransform="translate(850.5 234) rotate(180) scale(705 705)">
<stop stop-color="#CFEEFF"/>
<stop offset="1" stop-color="#CFEEFF" stop-opacity="0"/>
</radialGradient>
<radialGradient id="paint22_radial_1241_157" cx="0" cy="0" r="1" gradientUnits="userSpaceOnUse" gradientTransform="translate(850.5 234) rotate(180) scale(705 705)">
<stop stop-color="#CFEEFF"/>
<stop offset="1" stop-color="#CFEEFF" stop-opacity="0"/>
</radialGradient>
<radialGradient id="paint23_radial_1241_157" cx="0" cy="0" r="1" gradientUnits="userSpaceOnUse" gradientTransform="translate(850.5 234) rotate(180) scale(705 705)">
<stop stop-color="#CFEEFF"/>
<stop offset="1" stop-color="#CFEEFF" stop-opacity="0"/>
</radialGradient>
<radialGradient id="paint24_radial_1241_157" cx="0" cy="0" r="1" gradientUnits="userSpaceOnUse" gradientTransform="translate(850.5 234) rotate(180) scale(705 705)">
<stop stop-color="#CFEEFF"/>
<stop offset="1" stop-color="#CFEEFF" stop-opacity="0"/>
</radialGradient>
<radialGradient id="paint25_radial_1241_157" cx="0" cy="0" r="1" gradientUnits="userSpaceOnUse" gradientTransform="translate(850.5 234) rotate(180) scale(705 705)">
<stop stop-color="#CFEEFF"/>
<stop offset="1" stop-color="#CFEEFF" stop-opacity="0"/>
</radialGradient>
<radialGradient id="paint26_radial_1241_157" cx="0" cy="0" r="1" gradientUnits="userSpaceOnUse" gradientTransform="translate(850.5 234) rotate(180) scale(705 705)">
<stop stop-color="#CFEEFF"/>
<stop offset="1" stop-color="#CFEEFF" stop-opacity="0"/>
</radialGradient>
<radialGradient id="paint27_radial_1241_157" cx="0" cy="0" r="1" gradientUnits="userSpaceOnUse" gradientTransform="translate(850.5 234) rotate(180) scale(705 705)">
<stop stop-color="#CFEEFF"/>
<stop offset="1" stop-color="#CFEEFF" stop-opacity="0"/>
</radialGradient>
<radialGradient id="paint28_radial_1241_157" cx="0" cy="0" r="1" gradientUnits="userSpaceOnUse" gradientTransform="translate(850.5 234) rotate(180) scale(705 705)">
<stop stop-color="#CFEEFF"/>
<stop offset="1" stop-color="#CFEEFF" stop-opacity="0"/>
</radialGradient>
<radialGradient id="paint29_radial_1241_157" cx="0" cy="0" r="1" gradientUnits="userSpaceOnUse" gradientTransform="translate(850.5 234) rotate(180) scale(705 705)">
<stop stop-color="#CFEEFF"/>
<stop offset="1" stop-color="#CFEEFF" stop-opacity="0"/>
</radialGradient>
<radialGradient id="paint30_radial_1241_157" cx="0" cy="0" r="1" gradientUnits="userSpaceOnUse" gradientTransform="translate(850.5 234) rotate(180) scale(705 705)">
<stop stop-color="#CFEEFF"/>
<stop offset="1" stop-color="#CFEEFF" stop-opacity="0"/>
</radialGradient>
<radialGradient id="paint31_radial_1241_157" cx="0" cy="0" r="1" gradientUnits="userSpaceOnUse" gradientTransform="translate(850.5 234) rotate(180) scale(705 705)">
<stop stop-color="#CFEEFF"/>
<stop offset="1" stop-color="#CFEEFF" stop-opacity="0"/>
</radialGradient>
<radialGradient id="paint32_radial_1241_157" cx="0" cy="0" r="1" gradientUnits="userSpaceOnUse" gradientTransform="translate(850.5 234) rotate(180) scale(705 705)">
<stop stop-color="#CFEEFF"/>
<stop offset="1" stop-color="#CFEEFF" stop-opacity="0"/>
</radialGradient>
<radialGradient id="paint33_radial_1241_157" cx="0" cy="0" r="1" gradientUnits="userSpaceOnUse" gradientTransform="translate(850.5 234) rotate(180) scale(705 705)">
<stop stop-color="#CFEEFF"/>
<stop offset="1" stop-color="#CFEEFF" stop-opacity="0"/>
</radialGradient>
<radialGradient id="paint34_radial_1241_157" cx="0" cy="0" r="1" gradientUnits="userSpaceOnUse" gradientTransform="translate(850.5 234) rotate(180) scale(705 705)">
<stop stop-color="#CFEEFF"/>
<stop offset="1" stop-color="#CFEEFF" stop-opacity="0"/>
</radialGradient>
<radialGradient id="paint35_radial_1241_157" cx="0" cy="0" r="1" gradientUnits="userSpaceOnUse" gradientTransform="translate(850.5 234) rotate(180) scale(705 705)">
<stop stop-color="#CFEEFF"/>
<stop offset="1" stop-color="#CFEEFF" stop-opacity="0"/>
</radialGradient>
<radialGradient id="paint36_radial_1241_157" cx="0" cy="0" r="1" gradientUnits="userSpaceOnUse" gradientTransform="translate(850.5 234) rotate(180) scale(705 705)">
<stop stop-color="#CFEEFF"/>
<stop offset="1" stop-color="#CFEEFF" stop-opacity="0"/>
</radialGradient>
<radialGradient id="paint37_radial_1241_157" cx="0" cy="0" r="1" gradientUnits="userSpaceOnUse" gradientTransform="translate(850.5 234) rotate(180) scale(705 705)">
<stop stop-color="#CFEEFF"/>
<stop offset="1" stop-color="#CFEEFF" stop-opacity="0"/>
</radialGradient>
<radialGradient id="paint38_radial_1241_157" cx="0" cy="0" r="1" gradientUnits="userSpaceOnUse" gradientTransform="translate(850.5 234) rotate(180) scale(705 705)">
<stop stop-color="#CFEEFF"/>
<stop offset="1" stop-color="#CFEEFF" stop-opacity="0"/>
</radialGradient>
</defs>
</svg>
